<mxfile host="app.diagrams.net" modified="2023-06-05T16:46:15.716Z" agent="Mozilla/5.0 (X11; Linux x86_64; rv:109.0) Gecko/20100101 Firefox/113.0" version="21.3.6" etag="QqbgnjJ0jfad-woGuCD8" type="github">
  <diagram name="Page-1" id="kISNL_e38dTZr7-t5ltx">
    <mxGraphModel>
      <root>
        <mxCell id="0" />
        <mxCell id="1" parent="0" />
      </root>
    </mxGraphModel>
  </diagram>
</mxfile>
